<svg xmlns="http://www.w3.org/2000/svg" viewBox="0 0 8.32 11.52"><defs><style>.cls-1{fill:#20364c;}</style></defs><g id="Слой_2" data-name="Слой 2"><g id="PRINT"><path class="cls-1" d="M7,1V.67A.68.68,0,0,0,6.34,0H6.23a.68.68,0,0,0-.68.67V1H1.36A1.36,1.36,0,0,0,0,2.33v7.84a1.36,1.36,0,0,0,1.36,1.35H7a1.36,1.36,0,0,0,1.36-1.35V2.33A1.35,1.35,0,0,0,7,1ZM4.16,10.58a.73.73,0,0,1-.73-.73.73.73,0,0,1,1.46,0A.73.73,0,0,1,4.16,10.58Zm3.17-4.1a1,1,0,0,1-1,1H2a1,1,0,0,1-1-1V3.27a1,1,0,0,1,1-1H6.29a1,1,0,0,1,1,1Z"/></g></g></svg>